<?xml version="1.0" encoding="utf-8"?>
<!-- Generator: Adobe Illustrator 26.0.1, SVG Export Plug-In . SVG Version: 6.00 Build 0)  -->
<svg version="1.1" id="Layer_1" xmlns="http://www.w3.org/2000/svg" xmlns:xlink="http://www.w3.org/1999/xlink" x="0px" y="0px"
	 viewBox="0 0 258 86.5" style="enable-background:new 0 0 258 86.5;" xml:space="preserve">
<style type="text/css">
	.st0{fill:#766458;}
	.st1{fill:#81B3D3;}
</style>
<path class="st0" d="M52.3,56.7l-2.8,4.9h-2.7l-0.9,1.4h2.8l-6.1,10.4c-1.3,2.2-0.4,4.2,2.1,4.2c1.8,0,3.7-1.3,5.6-3.1
	c0,3.8,5.3,4.5,8.6,0.5h0.7c2.4-0.1,4.6-1.2,6.2-2.9c-0.3-0.4-0.7-0.8-1.1-1l-0.2,0.2c-1.2,1.3-2.8,2.1-4.6,2.2l2.8-4.8
	c1.8-3.1,0.1-6.1-2.7-6.1c-2.3,0-4.1,0.9-5.9,3.9l-1.5,2.6l-1.2,2.1l-0.2,0.2c-2.2,2.5-4.3,4.5-5.6,4.5c-0.7,0-1-0.5-0.3-1.6
	L51.6,63h2.5l0.9-1.4h-2.5l2.8-4.9L52.3,56.7z M59.8,64.6c1,0.1,1.5,1.3,0.4,3l-2.2,3.7h-0.1c-1,0-1.8,0.8-1.8,1.8c0,0,0,0,0,0
	c0,0.4,0.1,0.7,0.3,1l0,0.1c-1.4,2.4-4.9,2-3.1-1.1l2.3-3.9l1.5-2.4C58,65.1,59.1,64.5,59.8,64.6L59.8,64.6z M81.8,56.7l-2.8,4.9
	h-2.7L75.3,63h2.8L72,73.4c-1.3,2.2-0.4,4.2,2.1,4.2c1.4-0.1,2.8-0.7,3.9-1.6l-0.8,1.3h3l4.6-7.9c4.6-5.8,6.7-5,5.4-2.8l-3.9,6.7
	c-1.3,2.2-0.4,4.2,2.1,4.2c1.8,0,3.8-1.4,5.7-3.2c0.1,1.9,1.7,3.2,4.1,3.2c3.4,0,6.8-2.6,9.3-5.5c-0.3-0.5-0.7-0.8-1.1-1l-0.2,0.2
	c-2.2,2.5-5,4.5-7.1,4.5c-1.9,0-3-1.1-1.6-3.6l0.3-0.5c1.9,0.8,5.6,0.4,7.9-3.4l0.4-0.7c1.6-2.8,0.1-4.8-2.4-4.8
	c-2.4,0-4.6,1.3-5.7,3.4l-2.9,5l-0.2,0.2c-2.2,2.5-4.3,4.5-5.6,4.5c-0.7,0-1-0.5-0.3-1.6l4.4-7.5c1.3-2.3,0.1-3.9-1.6-3.9
	c-1.3,0-2.7,0.7-4.2,2.3l4.8-8.3h-3l-8.4,14.4l-0.2,0.2c-2.2,2.5-4.3,4.5-5.6,4.5c-0.7,0-1-0.5-0.3-1.6L81.1,63h2.5l0.9-1.4h-2.5
	l2.8-4.9L81.8,56.7z M103.1,65c1-0.1,1.5,0.9,0.5,2.6l-0.4,0.7c-1.4,2.4-3.4,2.4-4.5,2l1.9-3.4C101,65.9,102,65.2,103.1,65L103.1,65
	z M147.4,59.5c-1.7,1.5-1.9,3.2-0.8,4.6l0.3,0.3c-1.3,1.9-3.1,4.4-5.1,6.7l0,0l-0.2,0.2c-1.2,1.3-2.8,2.1-4.6,2.2l2.8-4.8
	c1.8-3.1,0.1-6.1-2.7-6.1c-2.3,0-4.1,0.9-5.9,3.9l-1.5,2.6l-1.2,2.1l-0.2,0.2c-2.5,2.8-4.6,4.7-7,5.7l6.8-11.4h-1.8
	c-0.2-1.6-1.5-2.9-3.2-2.9c-2.2,0.2-4.1,1.5-5.2,3.4l-4.2,7.2c-1.3,2.2-0.4,4.2,2.1,4.2c1-0.1,2-0.4,2.9-1l-0.8,1.4
	c-4.1,1.2-6.6,2.9-6.6,5.1c0,2.9,4.4,3.5,6.6-0.2l2.3-3.9c2.7-0.9,5.2-2.4,7.2-4.5c0,3.8,5.3,4.6,8.6,0.5h0.7
	c2.4-0.1,4.6-1.2,6.2-2.9c1.4-1.7,2.6-3.2,5-6.4l0.4,0.5c0.4,0.5,0.5,1.1,0.2,1.7l-3.2,5.5c-1.3,2.2-0.4,4.2,2.1,4.2
	c1.5,0,3.2-1,4.8-2.4c-0.1,1.3,0.9,2.4,2.2,2.4c0.1,0,0.3,0,0.4,0c1-0.1,2-0.4,2.9-1l-0.8,1.4c-4.1,1.2-6.6,2.9-6.6,5.1
	c0,2.9,4.4,3.5,6.6-0.2l2.3-3.9c2.8-0.9,5.3-2.5,7.4-4.6c0.1,1.9,1.7,3.2,4.1,3.2c2.5,0,4.9-1.4,7-3.2c-0.1,3.9,5.3,4.7,8.6,0.6h0.7
	c1.2-0.1,2.3-0.3,3.4-0.9c-0.8,2.1-0.1,3.5,1.7,3.5c1.7,0,3.5-1.5,5-2.9c-0.3,1.3,0.5,2.5,1.7,2.8c0.3,0.1,0.6,0.1,0.9,0
	c2.5,0,5.4-2.6,7.9-5.5l0,0c1.7-2,3.2-4,4.3-5.4c-1.2,3.1-0.6,8.7-3.4,8.7c-0.6-0.1-1.2-0.5-1.4-1.1l-1.9,1c0.4,1.5,1.8,2.5,3.3,2.4
	c0.3,0,0.6,0,0.8-0.1c0,0,0.1,0,0.1,0c3.1-0.4,6.1-2.8,8.4-5.4c-0.2-0.5-0.6-0.9-1.1-1l-0.2,0.2c-1.1,1.2-2.3,2.3-3.6,3.2
	c1-2.8,0.8-7.2,2.6-11l-2.3-1.2c-1.2,1.7-4,5.6-6.7,8.7l0,0l-0.2,0.2c-2.2,2.5-4.3,4.5-5.6,4.5c-0.7,0-1-0.5-0.3-1.6l6.4-11.2h-3
	l-5.4,9.3c-2.3,2.1-4.1,3.2-4.6,3c-0.8-0.3,0-1.4,0.4-2.1l5.9-10.2h-3l-4.7,8.1l-0.2,0.2c-1.2,1.3-2.8,2.1-4.6,2.2l2.8-4.8
	c1.8-3.1,0.1-6.1-2.7-6.1c-2.3,0-4.1,0.9-5.9,3.9l-1.5,2.6l-1.2,2.1l-0.2,0.2c-2.2,2.5-5,4.5-7.1,4.5c-1.9,0-3-1.1-1.6-3.6l0.3-0.5
	c1.9,0.8,5.6,0.4,7.9-3.4l0.4-0.7c1.6-2.8,0.1-4.8-2.4-4.8c-2.4,0-4.6,1.3-5.7,3.4l-2.9,5l-0.2,0.2c-2.5,2.8-4.6,4.7-7,5.7l6.8-11.4
	h-1.8c-0.2-1.6-1.5-2.9-3.2-2.9c-2.2,0.2-4.1,1.5-5.2,3.4l-2.9,4.9h0l-0.2,0.2c-2.2,2.5-4.3,4.5-5.6,4.5c-0.7,0-1-0.5-0.3-1.6l3-5.2
	c0.9-1.3,0.7-3-0.4-4l-1.7-2c-0.4-0.5-0.4-1.2,0.1-1.6c0,0,0.1-0.1,0.1-0.1L147.4,59.5z M137.1,64.6c1,0.1,1.5,1.3,0.4,3l-2.2,3.7
	h-0.1c-1,0-1.8,0.8-1.8,1.8c0,0,0,0,0,0c0,0.4,0.1,0.7,0.3,1l0,0.1c-1.4,2.4-4.9,2-3.1-1.1l2.3-3.9l1.5-2.4
	C135.3,65.1,136.3,64.5,137.1,64.6L137.1,64.6z M187.3,64.6c1,0.1,1.5,1.3,0.4,3l-2.2,3.7h-0.1c-1,0-1.8,0.8-1.8,1.8c0,0,0,0,0,0
	c0,0.4,0.1,0.7,0.3,1l0,0.1c-1.4,2.4-4.9,2-3.1-1.1l2.3-3.9l1.5-2.4C185.4,65.1,186.5,64.5,187.3,64.6L187.3,64.6z M175.6,65
	c1-0.1,1.5,0.9,0.5,2.6l-0.4,0.7c-1.5,2.4-3.4,2.4-4.5,2l1.9-3.4C173.5,65.9,174.5,65.2,175.6,65L175.6,65z M123.2,65.2
	c1,0,1.7,0.9,0.8,2.4l-2.3,4c-1.8,2.9-3.7,4.3-4.9,4.3c-0.7,0-1-0.5-0.3-1.6l4.2-7.3C121.1,66,122.1,65.3,123.2,65.2L123.2,65.2z
	 M162.1,65.2c1,0,1.7,0.9,0.8,2.4l-2.3,4c-1.8,2.9-3.7,4.3-4.9,4.3c-0.7,0-1-0.5-0.3-1.6l4.2-7.3C160,66,161,65.3,162.1,65.2
	L162.1,65.2z M116.7,80.1l-1.4,2.4c-0.6,1.1-1.7,0.9-1.7,0.1C113.7,81.9,114.5,81,116.7,80.1L116.7,80.1z M155.7,80.1l-1.4,2.4
	c-0.6,1.1-1.7,0.9-1.7,0.1C152.7,81.9,153.4,81,155.7,80.1L155.7,80.1z M1,68.5h28.9v1.9H1V68.5z M228.1,68.5H257v1.9h-28.9V68.5z"
	/>
<path class="st1" d="M222.7,38v7.7h-20.8V1h20.8v7.7h-13.2v10.8H220v7.7h-10.5V38H222.7z M189.9,1h7.6v44.7h-7.6v-22l-3,11.4h-7.4
	l-3-11.4v22h-7.6V1h7.6l6.8,21.6L189.9,1z M158,8.7h-5.5V38h5.5V8.7z M161,1c2.6,0,4.7,2.1,4.7,4.7V41c0,2.6-2.1,4.7-4.7,4.7h-11.4
	c-2.6,0-4.7-2.1-4.7-4.7V5.7c0-2.6,2.1-4.7,4.7-4.7c0,0,0,0,0,0L161,1z M133,29.3l7.7-1.8V41c0,2.6-2.1,4.7-4.7,4.7h-11.4
	c-2.6,0-4.7-2.1-4.7-4.7V5.7c0-2.6,2.1-4.7,4.7-4.7c0,0,0,0,0,0h11.4c2.6,0,4.7,2.1,4.7,4.7v9.1l-7.7,1.8V8.7h-5.5V38h5.5L133,29.3z
	 M116.2,38v7.7H98V1h7.6v37L116.2,38z M94.8,38v7.7H74V1h20.8v7.7H81.6v10.8h10.5v7.7H81.6V38L94.8,38z M62.6,1h7.7L69,45.7H54.6
	l-2-18.5l-2,18.5H36.1L35,1h7.6l0.6,37H44l4.8-37h7.6l4.9,37H62L62.6,1z"/>
</svg>
