<svg id="Layer_1" data-name="Layer 1" xmlns="http://www.w3.org/2000/svg" viewBox="0 0 459.918 78.644"><defs><style>.cls-1{fill:#fff;}</style></defs><path class="cls-1" d="M432.624,2.315h-25.2L381.994,76.3h19.97l3.83-13.36h28.57l3.72,13.36h20.2Zm-22.53,46.34,7.55-24.5c.31-1.08.58-2.16.81-3.26q.48-1.665.81-3.36a.889.889,0,0,0,.12-.35,1.025,1.025,0,0,1,.12-.47c.07-.46.15-.89.23-1.27a12.616,12.616,0,0,0,.35-1.28c.07.39.15.81.23,1.28a10.332,10.332,0,0,0,.35,1.27q.36,1.935.81,3.84c.38,1.2.76,2.4,1.16,3.6l7.55,24.5Z"/><path class="cls-1" d="M299.962,76.293V2.319h19.51l27.871,37.974a37.238,37.238,0,0,1,1.974,3.484q1.056,1.762,1.974,3.6l1.394,3.02q.7,1.509,1.393,2.9a23.033,23.033,0,0,0-.347-2.438q-.115-1.161-.232-2.439-.237-2.374-.349-4.761-.121-2.495-.116-4.994V2.319h19.393V76.293H353.034l-28.1-38.206a21.624,21.624,0,0,1-2.206-3.251q-1.058-2-1.974-4.065-.675-1.461-1.394-2.9-.54-1.41-1.161-2.787.579,3.6.928,7.316c.232,2.477.342,4.955.348,7.432V76.293Z"/><path class="cls-1" d="M281.744,21.655a36.119,36.119,0,0,0-12.77-14.28,39.668,39.668,0,0,0-8.13-3.95,40.594,40.594,0,0,0-8.48-2.09c-.93-.08-1.89-.15-2.9-.23q-1.4-.12-2.79-.12a40.678,40.678,0,0,0-19.86,5.23,36.751,36.751,0,0,0-14.86,15.09,37.491,37.491,0,0,0-2.56,5.93,45.086,45.086,0,0,0-1.62,6.03,24.627,24.627,0,0,0-.47,3.14c-.07,1.01-.11,2.01-.11,3.02a38.624,38.624,0,0,0,5.57,19.74,38.051,38.051,0,0,0,22.76,17.42,46.023,46.023,0,0,0,7.9,1.39h1.51a11.074,11.074,0,0,0,1.63.12,41.831,41.831,0,0,0,21.71-6.15,37.355,37.355,0,0,0,15.21-17.54,34.421,34.421,0,0,0,1.51-4.64,27.113,27.113,0,0,0,.93-4.88,11.5,11.5,0,0,0,.24-2.32c.07-.86.11-1.67.11-2.44A39.947,39.947,0,0,0,281.744,21.655Zm-15.79,19.63a11.04,11.04,0,0,1-.12,1.62,14.19,14.19,0,0,1-.46,2.56,24.884,24.884,0,0,1-.58,2.44,20.7,20.7,0,0,1-7.2,9.87,18.107,18.107,0,0,1-11.03,3.6h-1.4l-1.39-.23c-.54-.08-1.05-.16-1.51-.24l-1.39-.46a16.4,16.4,0,0,1-9.53-7.2,25.216,25.216,0,0,1-3.71-11.73,3.305,3.305,0,0,1-.12-.81v-2.44l.23-1.63c.16-.77.31-1.51.47-2.2a18.4,18.4,0,0,1,.58-2.21v-.46l.23-.47a19.371,19.371,0,0,1,6.97-9.87A17.882,17.882,0,0,1,246.9,17.7a11.447,11.447,0,0,1,2.33.24,22.752,22.752,0,0,1,2.32.34c.77.24,1.55.51,2.32.82s1.55.66,2.32,1.04a17.885,17.885,0,0,1,6.74,7.2,27.4,27.4,0,0,1,3.02,9.64v1.39a8.272,8.272,0,0,1,.12,1.4A10.413,10.413,0,0,1,265.954,41.285Z"/><path class="cls-1" d="M196.8,36.575a40.362,40.362,0,0,0-4.06-15.33,30.481,30.481,0,0,0-10.11-11.96,30.214,30.214,0,0,0-11.26-5.11,72.281,72.281,0,0,0-12.31-1.74q-1.74-.12-3.6-.12h-25.08V76.3h23.8q1.86,0,3.72-.12a80.341,80.341,0,0,0,12.89-1.74,33.53,33.53,0,0,0,11.84-5.11,32.019,32.019,0,0,0,10.34-12.54,41.306,41.306,0,0,0,3.95-15.91v-2.9A8.272,8.272,0,0,0,196.8,36.575Zm-20.21,2.79a25.7,25.7,0,0,1-1.85,9.64,15.511,15.511,0,0,1-5.46,7.2,17.324,17.324,0,0,1-5.23,2.44,30.467,30.467,0,0,1-5.92,1.04c-.77.08-1.59.16-2.44.23h-3.13a2.906,2.906,0,0,0-.82-.11h-.81a2.147,2.147,0,0,0-.7-.12V18.925h7.55a30.685,30.685,0,0,1,6.04.81,13.475,13.475,0,0,1,5.46,2.67,16.457,16.457,0,0,1,5.11,6.62,23.1,23.1,0,0,1,2.09,8.48,3.694,3.694,0,0,1,.11.93Z"/><polygon class="cls-1" points="70.326 76.292 70.326 2.318 115.732 2.318 115.732 18.46 90.184 18.46 90.184 31.35 114.223 31.35 114.223 47.144 90.184 47.144 90.184 59.686 115.732 59.686 115.732 76.292 70.326 76.292"/><path class="cls-1" d="M10.923,52.458a.338.338,0,0,1,.116.233.33.33,0,0,1,.232.116,51.978,51.978,0,0,0,7.084,6.5,16.186,16.186,0,0,0,9.058,3.135.335.335,0,0,1,.232.117h.349a.332.332,0,0,1,.232.116H29.5q.582-.117,1.046-.233a9.668,9.668,0,0,0,3.484-1.393A7.724,7.724,0,0,0,36.7,58.5l.233-.465.232-.464a13.863,13.863,0,0,0,.349-1.51,7.855,7.855,0,0,0,.116-1.277,6.31,6.31,0,0,0-2.787-5.226,19.966,19.966,0,0,0-5.807-3.368,16.883,16.883,0,0,0-2.439-.7q-1.092-.33-2.206-.58h-.232a.337.337,0,0,0-.232-.116,38.034,38.034,0,0,1-10.684-4.413A15.935,15.935,0,0,1,6.394,31.44Q6.031,30.224,5.7,29q-.237-1.326-.348-2.67a3.447,3.447,0,0,1-.116-.814V22.73a15.587,15.587,0,0,1,.348-1.858,25.588,25.588,0,0,1,1.161-4.645,17.611,17.611,0,0,1,2.09-4.18,21.671,21.671,0,0,1,9.523-8.826A29.623,29.623,0,0,1,30.665.55a19.816,19.816,0,0,1,3.02.232q1.632.115,3.251.348a39.676,39.676,0,0,1,8.245,2.323,44.3,44.3,0,0,1,7.665,3.832L46.459,21.569a44.49,44.49,0,0,0-6.62-4.064,16.629,16.629,0,0,0-7.548-1.742h-.93A9.191,9.191,0,0,0,26.368,18.2a5.645,5.645,0,0,0-2.322,4.3v.7a2.927,2.927,0,0,0,.348.7,4.115,4.115,0,0,0,.813,1.51,10,10,0,0,0,1.277,1.277A13.556,13.556,0,0,0,30.2,28.653q2.438.813,5.11,1.626,2.2.581,4.3,1.161a35.85,35.85,0,0,1,3.484.93,17.931,17.931,0,0,1,9.755,7.78,22.377,22.377,0,0,1,3.367,11.38v.58A8.4,8.4,0,0,1,56.1,53.5v1.277a28.674,28.674,0,0,1-3.948,11.5,21.467,21.467,0,0,1-8.477,8.362,36.826,36.826,0,0,1-4.065,1.625q-2.076.578-4.18,1.046a26.67,26.67,0,0,1-3.484.464,25.288,25.288,0,0,1-3.368.232H27.3a38.961,38.961,0,0,1-13.7-3.02,42.689,42.689,0,0,1-11.96-7.664Z"/></svg>