<svg id="Layer_1" data-name="Layer 1" xmlns="http://www.w3.org/2000/svg" viewBox="0 0 296.92 80.972"><defs><style>.cls-1{fill:#fff;}</style></defs><path class="cls-1" d="M271.314,66.278a2.461,2.461,0,0,1,.673-1.669,2.593,2.593,0,0,1,.827-.572,2.644,2.644,0,0,1,1.095-.22,3.432,3.432,0,0,1,1.3.252,2.938,2.938,0,0,1,1.061.727,3.133,3.133,0,0,1,.572,1.044,3.983,3.983,0,0,1,.2,1.281,5.9,5.9,0,0,1-1.751,4.279,5.882,5.882,0,0,1-.843.691,9.762,9.762,0,0,1-.893.54c-.28.144-.52.264-.726.352-.125.053-.248.11-.37.17l-1.35-1.99c.25-.09.524-.207.828-.352a4.517,4.517,0,0,0,.857-.539,2.955,2.955,0,0,0,.676-.76,2.15,2.15,0,0,0,.3-1.01,2.729,2.729,0,0,1-1.72-.574,1.958,1.958,0,0,1-.74-1.649m7.837,0a2.47,2.47,0,0,1,.167-.877,2.393,2.393,0,0,1,.506-.792,2.6,2.6,0,0,1,.825-.572,2.668,2.668,0,0,1,1.1-.22,3.42,3.42,0,0,1,1.3.252,2.9,2.9,0,0,1,1.061.727,3.068,3.068,0,0,1,.574,1.044,4.048,4.048,0,0,1,.2,1.281,5.883,5.883,0,0,1-1.753,4.278,5.715,5.715,0,0,1-.845.691,8.181,8.181,0,0,1-.893.54c-.28.145-.52.264-.725.352-.125.054-.248.11-.37.17l-1.348-1.99c.247-.089.52-.207.825-.352a4.6,4.6,0,0,0,.86-.539,2.909,2.909,0,0,0,.673-.76,2.113,2.113,0,0,0,.3-1.01,2.724,2.724,0,0,1-1.719-.574,1.964,1.964,0,0,1-.737-1.648M14.591,7.563a2.466,2.466,0,0,1-.673,1.668A2.641,2.641,0,0,1,12,10.022a3.393,3.393,0,0,1-1.3-.252,2.908,2.908,0,0,1-1.06-.725A3.1,3.1,0,0,1,9.065,8a4.032,4.032,0,0,1-.2-1.28,5.887,5.887,0,0,1,1.752-4.28,5.539,5.539,0,0,1,.844-.69,8.976,8.976,0,0,1,.893-.54c.28-.144.522-.263.725-.352s.326-.145.37-.167L14.8,2.679q-.421.158-.825.352a4.583,4.583,0,0,0-.86.539,2.883,2.883,0,0,0-.673.758,2.143,2.143,0,0,0-.3,1.013,2.731,2.731,0,0,1,1.718.572,1.961,1.961,0,0,1,.74,1.649m-7.837,0a2.459,2.459,0,0,1-.673,1.67,2.576,2.576,0,0,1-.826.571,2.655,2.655,0,0,1-1.1.22,3.4,3.4,0,0,1-1.3-.252A2.911,2.911,0,0,1,1.8,9.045,3.068,3.068,0,0,1,1.229,8a3.972,3.972,0,0,1-.2-1.28A5.887,5.887,0,0,1,2.779,2.44a5.665,5.665,0,0,1,.843-.691,9.407,9.407,0,0,1,.893-.54c.28-.144.52-.262.724-.35s.327-.147.372-.17L6.958,2.677c-.248.09-.522.208-.826.353a4.614,4.614,0,0,0-.857.538,2.932,2.932,0,0,0-.676.759,2.142,2.142,0,0,0-.3,1.012,2.726,2.726,0,0,1,1.718.573,1.96,1.96,0,0,1,.74,1.65m245.35,56.874h3.815L267.762,43.8h-3.776Zm-.18,1.488a2.173,2.173,0,0,0-2.182,2.218,2.141,2.141,0,0,0,2.181,2.18,2.174,2.174,0,0,0,2.217-2.18,2.206,2.206,0,0,0-2.217-2.218M225.572,60.4l1.09-1.888c4.36-6.068,7.339-4.4,5.994-2.107l-1.815,3.124c-1.13,1.962-4.434,3.342-5.269.871m25.092,2.98a2.385,2.385,0,0,0-1.417-1.307l-.255.292a23.528,23.528,0,0,1-4.542,4.1c1.2-3.6.943-9.118,3.268-13.95l-2.835-1.527c-1.56,2.143-4.976,7.084-8.392,11.081a.3.3,0,0,0,.021.025c-.014-.006-.03-.02-.045-.025l-.253.292c-2.727,3.16-5.377,5.666-7.05,5.666-.834,0-1.634-.836-1.634-2.543V63.923c2.652.327,5.45-1.418,7.23-4.5l1.016-1.743c3.522-6.03-2.217-8.03-6.068-4.5l5.375-9.337H231.3l-10.775,18.7a3.024,3.024,0,0,0-.689-.457l-.256.292c-2.723,3.16-6.211,5.666-8.863,5.666-2.325,0-3.705-1.453-1.961-4.5l3.884-6.757c2.18-3.742,6.032-3.124,3.778.8l-.544.944h3.09l.545-.944c2.034-3.488.071-6.1-3.015-6.1a7.994,7.994,0,0,0-7.085,4.36l-3.718,6.38a2.46,2.46,0,0,0-.233-.132l-.255.292c-2.724,3.16-5.375,5.666-7.047,5.666-.836,0-1.306-.58-.436-2.07l8.066-14.133h-3.78l-6.719,11.734c-2.873,2.615-5.085,4.068-5.814,3.742-.944-.4,0-1.816.473-2.615l7.374-12.861h-3.778l-7.338,12.7a28.843,28.843,0,0,1-3.19,1.944c1.2-3.6.944-9.118,3.269-13.95l-2.832-1.527c-1.563,2.143-10.283,13.7-13.7,17.693a5.454,5.454,0,0,0,1.416,1.308c2.143-2.47,9.338-11.734,10.682-13.514-1.49,3.923-.69,10.972-4.288,10.972a2.111,2.111,0,0,1-1.78-1.382L173.426,67.3a4.118,4.118,0,0,0,4.14,3.05,10.384,10.384,0,0,0,1.056-.072c.035,0,.071-.036.106-.036a16.091,16.091,0,0,0,6.36-2.37,2.28,2.28,0,0,0,2.5,2.478c2.068,0,4.4-1.889,6.21-3.632-.361,2.035.835,3.632,3.235,3.632,2.346,0,4.959-1.886,7.437-4.363.034,2.51,1.968,4.363,5.126,4.363,3.066,0,6.114-1.713,8.741-4.016l-2.1,3.654h3.816l4.323-7.52v3.014c0,3.232.617,4.868,3.67,4.868,3.123,0,6.721-3.341,9.845-6.975-.006-.01-.018-.021-.02-.034a.566.566,0,0,0,.047.034c2.144-2.47,4.034-5.123,5.375-6.9C241.8,60.4,242.6,67.448,239,67.448a2.111,2.111,0,0,1-1.78-1.382L234.859,67.3A4.12,4.12,0,0,0,239,70.352a10.523,10.523,0,0,0,1.056-.072c.034,0,.069-.035.105-.035,3.853-.512,7.668-3.562,10.5-6.87m-114.59-1.084h-.183a2.233,2.233,0,0,0-2.216,2.255,2.465,2.465,0,0,0,.363,1.269l-.037.073c-1.779,3.05-6.1,2.47-3.85-1.454l2.87-4.977,1.816-3.088c2.653-4.505,6.285-2.725,4,1.2Zm-25.43,14.131c-.8,1.417-2.072,1.2-2.072.184,0-.98.909-2.106,3.815-3.234ZM81.9,62.692c-2.288,3.6-4.541,5.3-6.1,5.3-.835,0-1.307-.58-.436-2.071l5.267-9.193c2.035-3.522,6.067-2.615,4.213.8ZM69.847,47.942c1.126-1.927,2.362-2.762,3.415-2.762,1.418,0,2.071.944,2.071,2.325,0,3.524-4.364,10.833-10.172,9.881H64.4Zm92.777,14.094-.254.292C159.648,65.488,157,68,155.323,68c-.836,0-1.307-.58-.436-2.072l5.45-9.553c1.636-2.87.07-4.941-2.035-4.941-1.636,0-3.341.871-5.231,2.833l1.417-2.469h-3.779l-6.088,10.533a2.778,2.778,0,0,0-.482-.29l-.255.292a8.147,8.147,0,0,1-5.7,2.8l3.56-6.14c2.288-3.962.182-7.7-3.38-7.7-2.907,0-5.158,1.162-7.339,4.94l-1.852,3.233-1.62,2.77a2.591,2.591,0,0,0-.342-.19l-.254.291c-3.125,3.595-5.777,5.92-8.755,7.2L128.554,51.8h-3.779l-6.683,11.626c-2.907,2.687-5.16,4.176-5.886,3.85-.944-.4,0-1.816.472-2.616l7.375-12.86h-3.778l-6.028,10.43a2.628,2.628,0,0,0-.331-.187l-.254.292C106.937,65.49,104.286,68,102.614,68c-.835,0-1.307-.58-.436-2.072l5.449-9.553c1.635-2.87.073-4.942-2.034-4.942-1.635,0-3.343.872-5.231,2.834l1.417-2.469H98L91.961,62.24a2.687,2.687,0,0,0-.359-.2l-.254.292C88.625,65.49,85.973,68,84.3,68c-.835,0-1.307-.58-.436-2.072l6.1-10.68H87.825a3.927,3.927,0,0,0-3.961-3.814c-2.033,0-4.869,1.6-6.465,4.36l-3.9,6.736a2.167,2.167,0,0,0-.828-.488l-.254.292C69.689,65.491,67.6,68,63.854,68c-2.579,0-4.14-2.579-1.89-6.431l1.055-1.852a13.687,13.687,0,0,0,2.142.184c4.033,0,8.611-2.072,11.59-7.267a10.478,10.478,0,0,0,1.526-5.086c0-3.415-2.217-5.63-5.013-5.63-2.071,0-4.542,1.454-6.248,4.432L61.13,56.485a6.089,6.089,0,0,1-3.38-5.378,6,6,0,0,1,2.434-4.757l-1.235-2.218A8.327,8.327,0,0,0,59.82,58.7L58.7,60.664c-2.651,4.578-1.09,9.662,4.25,9.662,4.226,0,6.076-1.88,8.681-4.355-.823,2.374.373,4.355,3.048,4.355,1.526,0,3.415-.98,5.232-2.469.18,1.454,1.344,2.469,3.268,2.469,1.81,0,3.778-1.124,5.72-2.773L87.5,69.964h3.814L97.092,59.9c5.777-7.23,8.357-6.287,6.722-3.488l-4.9,8.534c-1.6,2.8-.472,5.376,2.579,5.376,2.033,0,4.266-1.42,6.44-3.41-.453,2.078.506,3.41,2.388,3.41,1.817,0,3.886-1.526,5.6-3.05l-2.071,3.56c-5.123,1.524-8.32,3.633-8.32,6.465,0,3.633,5.56,4.4,8.282-.253l2.906-4.978a23.811,23.811,0,0,0,9.525-6.172c-.52,5.277,6.508,6.48,10.746,1.122h.835a11.019,11.019,0,0,0,4.934-1.45l-2.54,4.394h3.815L149.8,59.9c5.777-7.23,8.357-6.287,6.721-3.489l-4.9,8.538c-1.6,2.8-.473,5.376,2.58,5.376,3.126,0,6.72-3.342,9.846-6.975a3.275,3.275,0,0,0-1.418-1.311m118.63-35.573c-2.29,3.741-4.615,5.521-6.212,5.521-.835,0-1.307-.58-.437-2.07l5.267-9.193c2.035-3.524,6.067-2.615,4.214.8h.035Zm-36.187.219c-2.29,3.594-4.543,5.3-6.1,5.3-.836,0-1.307-.58-.437-2.07l5.268-9.193c2.034-3.524,6.066-2.615,4.214.8Zm-39.917,13.73c-.8,1.417-2.07,1.2-2.07.184,0-.981.872-2.107,3.779-3.234Zm8.028-28.481c1.127-1.926,2.362-2.76,3.417-2.76,5.994,0,1.525,14.435-8.1,12.2h-.763Zm77.664,14.1-.255.29c-2.72,3.16-5.374,5.667-7.047,5.667-.835,0-1.307-.58-.437-2.071L295.893,7.791h-3.779l-5.557,9.591A4.1,4.1,0,0,0,283.1,15.42c-2.035,0-4.867,1.6-6.466,4.359l-3.7,6.38c-.079-.046-.16-.1-.234-.132l-.255.292c-2.723,3.16-5,5.666-6.672,5.666-.837,0-1.307-.58-.438-2.07l5.45-9.555c1.637-2.87.072-4.942-2.034-4.942-1.636,0-3.34.871-5.232,2.835l1.417-2.47h-3.779L255.126,26.23a2.769,2.769,0,0,0-.36-.2l-.256.292c-2.723,3.16-5.374,5.666-7.046,5.666-.835,0-1.306-.58-.436-2.07l6.1-10.682h-2.144a3.926,3.926,0,0,0-3.96-3.815c-2.035,0-4.87,1.6-6.468,4.358l-3.652,6.306-.206.234c-2.722,3.159-5.75,5.665-7.42,5.665-.837,0-1.307-.58-.437-2.07l3.778-6.611c1.307-2.29.689-3.633-.545-5.123l-2.106-2.544a1.473,1.473,0,0,1,.218-2.18l-1.962-2.143c-2.144,1.927-2.325,4.069-.982,5.813l.329.436c-1.672,2.362-3.924,5.56-6.4,8.465a3.809,3.809,0,0,0,.258.32c-3.113,3.58-5.759,5.895-8.73,7.162L217.5,25.3h-3.778l-.4.655c-2,3.524-4.288,6.031-7.23,6.031-2.58,0-3.05-2.579-.8-6.43l1.055-1.852a13.481,13.481,0,0,0,2.142.181c13.443,0,19.946-17.982,8.1-17.982-2.072,0-4.544,1.454-6.25,4.432l-5.885,10.135a6.082,6.082,0,0,1-3.378-5.375,6.007,6.007,0,0,1,2.432-4.758L202.28,8.116a8.6,8.6,0,0,0-3.888,7.047,8.53,8.53,0,0,0,4.76,7.52l-1.127,1.963c-2.652,4.578-2.18,9.663,3.162,9.663a7.575,7.575,0,0,0,4.1-1.2l-.983,1.71c-5.12,1.56-8.282,3.631-8.282,6.465,0,3.632,5.56,4.4,8.282-.254l2.907-4.977c3.925-1.235,7.776-3.923,11.918-8.719a2.256,2.256,0,0,0-.236-.355c1.678-1.971,3.1-3.874,5.95-7.746l.507.619A1.856,1.856,0,0,1,229.573,22l-4,6.937c-1.6,2.8-.472,5.374,2.58,5.374,1.9,0,4.348-1.239,6.385-3.024-.044,1.738,1.144,3.024,3.3,3.024,1.525,0,3.415-.98,5.23-2.47.183,1.454,1.347,2.47,3.27,2.47,1.81,0,3.777-1.125,5.72-2.774l-1.392,2.412h3.813l5.777-10.065c5.777-7.229,8.357-6.284,6.72-3.487l-4.9,8.538c-1.6,2.8-.473,5.376,2.578,5.376,2.01,0,3.836-1.384,5.982-3.333-.2,1.893,1,3.333,3.282,3.333,1.525,0,3.414-.98,5.232-2.47.182,1.455,1.345,2.47,3.269,2.47,3.125,0,6.72-3.341,9.845-6.976a3.3,3.3,0,0,0-1.42-1.3m-112.28-5.3c2.18-3.742,6.033-3.125,3.779.8l-.545.944c-1.817,3.089-4.252,3.015-5.668,2.507Zm-3.051,13.587c4.287,0,8.54-3.341,11.662-6.975a3.266,3.266,0,0,0-1.417-1.308l-.253.292c-2.726,3.16-6.213,5.666-8.867,5.666-2.325,0-3.705-1.453-1.962-4.5l.363-.653c2.435,1.016,7.012.545,9.846-4.36l.545-.944c2.035-3.489.073-6.1-3.016-6.1a7.99,7.99,0,0,0-7.083,4.359l-3.679,6.313c-.038-.02-.076-.048-.112-.064l-.255.292c-2.724,3.16-5.375,5.666-7.047,5.666-.836,0-1.306-.58-.437-2.071l5.45-9.555c1.635-2.87.072-4.942-2.036-4.942-1.635,0-3.379.909-5.266,2.871l6.03-10.5H164.2l-10.656,18.49a2.487,2.487,0,0,0-.432-.252l-.255.291c-2.725,3.161-5.376,5.667-7.048,5.667-.835,0-1.307-.58-.437-2.07l8.1-14.134h3.09l1.09-1.817h-3.125l3.56-6.175h-3.778l-3.56,6.175h-3.415l-1.09,1.817h3.45L142.1,28.934c-1.6,2.8-.472,5.377,2.579,5.377,1.878,0,3.926-1.213,5.94-2.964l-1.5,2.6h3.815l5.74-9.992c5.813-7.3,8.393-6.357,6.758-3.56l-4.905,8.538c-1.6,2.8-.472,5.376,2.58,5.376,2.3,0,4.846-1.8,7.276-4.2.11,2.431,2.033,4.207,5.125,4.207M48.041,20.723c2.18-3.742,6.03-3.125,3.776.8l-.544.944c-1.815,3.089-4.251,3.016-5.667,2.507ZM71.16,29.914l5.268-9.191c2.034-3.526,6.067-2.617,4.213.8L77.7,26.681c-2.288,3.595-4.543,5.3-6.1,5.3-.834,0-1.307-.581-.435-2.07m53.984-9.192c2.18-3.742,6.03-3.125,3.776.8l-.545.944c-1.815,3.089-4.25,3.015-5.666,2.507ZM67.336,30.249c-.627,2.24.57,4.06,3.134,4.06,1.525,0,3.415-.98,5.23-2.469.183,1.453,1.346,2.47,3.27,2.47,2.013,0,4.218-1.39,6.369-3.346-.418,2.042.539,3.346,2.4,3.346,2.073,0,4.4-1.89,6.213-3.634-.364,2.036.837,3.634,3.234,3.634,3.125,0,6.72-3.342,9.845-6.976-.025-.05-.068-.1-.1-.151,2.088-2.429,3.93-5.007,5.248-6.75-1.49,3.922-.69,10.972-4.288,10.972a2.111,2.111,0,0,1-1.78-1.381l-2.363,1.234a4.12,4.12,0,0,0,4.142,3.052,10.125,10.125,0,0,0,1.054-.073c.037,0,.072-.035.108-.035,2.776-.367,5.529-2.056,7.913-4.209.058,2.486,1.986,4.317,5.125,4.317,4.287,0,8.538-3.341,11.662-6.976a3.274,3.274,0,0,0-1.416-1.308l-.254.292c-2.725,3.16-6.213,5.667-8.863,5.667-2.326,0-3.707-1.454-1.963-4.5l.364-.654c2.432,1.016,7.01.545,9.845-4.36l.545-.943c2.034-3.489.072-6.1-3.015-6.1a7.988,7.988,0,0,0-7.083,4.358l-3.67,6.294c-.035-.012-.07-.037-.1-.046l-.254.291a23.538,23.538,0,0,1-4.542,4.106c1.2-3.6.945-9.117,3.27-13.951l-2.833-1.526c-1.562,2.143-4.977,7.084-8.393,11.08.033.046.074.091.11.138l-.135.153c-2.724,3.16-5.376,5.667-7.048,5.667-.835,0-1.307-.58-.436-2.07l8.065-14.135h-3.779l-6.72,11.734c-2.87,2.616-5.085,4.069-5.814,3.742-.943-.4,0-1.815.474-2.615l7.373-12.86H93.7L87.685,26.184a2.347,2.347,0,0,0-.287-.161l-.254.29c-2.725,3.16-5.376,5.667-7.048,5.667-.835,0-1.307-.58-.436-2.07l6.1-10.682H83.619a3.927,3.927,0,0,0-3.96-3.816c-2.034,0-4.868,1.6-6.466,4.36l-3.83,6.612a2.852,2.852,0,0,0-.576-.363l-.254.29c-2.724,3.16-5.858,5.667-8.51,5.667-2.324,0-3.706-1.453-1.963-4.5l3.887-6.756c2.18-3.742,6.031-3.125,3.777.8l-.545.945h3.09l.544-.945c2.034-3.487.073-6.1-3.014-6.1-3.052,0-5.134,1.6-6.73,4.36l-3.756,6.443a2.458,2.458,0,0,0-.347-.194l-.254.29c-2.724,3.16-5.947,5.667-8.6,5.667-2.326,0-3.707-1.453-1.963-4.5l.363-.654c2.434,1.018,7.012.545,9.846-4.358l.545-.946c2.034-3.486.072-6.1-3.016-6.1a7.987,7.987,0,0,0-7.083,4.36l-3.96,6.792c-2.363,4.033-.327,7.738,4.14,7.738,3.329,0,6.013-2.015,8.788-4.617-.1,2.637,1.858,4.617,5.121,4.617,3.088.006,5.8-1.728,8.441-4.054M30.464,16.289l3.051-5.231C36.275,6.3,39.8,9.1,37.91,12.657c-1.45,2.724-3.595,3.56-7.446,3.633M26.4,33.509a10.892,10.892,0,0,1-5.45-1.306,19.769,19.769,0,0,0,1.89-2.689l6.356-11.008,1.017.108c8.866,1.855,5.341,14.9-3.813,14.9m9.336-15.475c7.629-2.58,8.21-12.135.69-12.135-2.071,0-4.541,1.453-6.248,4.432L20,27.916a14.642,14.642,0,0,1-1.452,2.14c-2.616-3.6-1.853-8.971,1.816-11.333L18.838,16.8c-7.92,5.05-5.594,19.617,7.63,19.617,11.3,0,16.53-13.547,9.264-18.38"/></svg>